<svg width="13" height="14" viewBox="0 0 13 14" fill="none" xmlns="http://www.w3.org/2000/svg">
    <path
        d="M6.49941 3.55627C6.02632 3.55627 5.56385 3.66056 5.17049 3.85595C4.77713 4.05133 4.47055 4.32904 4.2895 4.65396C4.10846 4.97887 4.06109 5.3364 4.15338 5.68133C4.24568 6.02626 4.47349 6.34309 4.80802 6.59177C5.14254 6.84045 5.56875 7.0098 6.03275 7.07842C6.49675 7.14703 6.9777 7.11181 7.41478 6.97723C7.85186 6.84264 8.22543 6.61473 8.48827 6.32232C8.7511 6.0299 8.89139 5.68611 8.89139 5.33443C8.89067 4.863 8.63842 4.41103 8.19 4.07768C7.74157 3.74432 7.13358 3.55681 6.49941 3.55627ZM6.49941 6.22351C6.26286 6.22351 6.03163 6.17136 5.83495 6.07367C5.63827 5.97598 5.48498 5.83712 5.39445 5.67466C5.30393 5.51221 5.28025 5.33344 5.32639 5.16098C5.37254 4.98851 5.48645 4.8301 5.65371 4.70576C5.82097 4.58142 6.03408 4.49674 6.26608 4.46243C6.49808 4.42813 6.73855 4.44574 6.95709 4.51303C7.17563 4.58032 7.36242 4.69428 7.49384 4.84048C7.62525 4.98669 7.6954 5.15859 7.6954 5.33443C7.69503 5.57014 7.56891 5.79612 7.3447 5.9628C7.12048 6.12948 6.81649 6.22323 6.49941 6.22351Z"
        fill="black" />
    <path
        d="M11.0961 1.91489C9.95966 1.07028 8.44262 0.568542 6.83778 0.506521C5.23295 0.444501 3.6541 0.82659 2.40595 1.57905C1.15779 2.3315 0.328823 3.40098 0.0790287 4.58107C-0.170766 5.76116 0.176323 6.96821 1.05331 7.96925L5.57217 13.1263C5.67274 13.241 5.81023 13.3353 5.9722 13.4006C6.13417 13.4658 6.31549 13.5 6.49972 13.5C6.68395 13.5 6.86527 13.4658 7.02724 13.4006C7.18921 13.3353 7.32671 13.241 7.42727 13.1263L11.9463 7.96925C12.76 7.04064 13.1196 5.93231 12.9649 4.83004C12.8101 3.72777 12.1503 2.69855 11.0961 1.91489ZM10.9442 7.48395L6.49974 12.5559L2.05525 7.48395C0.694808 5.93143 0.986593 3.85377 2.74904 2.54355C3.24158 2.17739 3.82632 1.88694 4.46987 1.68877C5.11342 1.49061 5.80317 1.38861 6.49974 1.38861C7.19631 1.38861 7.88607 1.49061 8.52961 1.68877C9.17316 1.88694 9.7579 2.17739 10.2504 2.54355C12.0129 3.85377 12.3046 5.93143 10.9442 7.48395Z"
        fill="black" />
</svg>